<svg viewBox="0 0 900 420" xmlns="http://www.w3.org/2000/svg" font-family="Inter, system-ui, sans-serif">
  <defs>
    <linearGradient id="bg" x1="0" y1="0" x2="1" y2="1">
      <stop offset="0" stop-color="#0b1020"/>
      <stop offset="1" stop-color="#08111d"/>
    </linearGradient>
    <marker id="arrow" markerWidth="10" markerHeight="10" refX="8" refY="5" orient="auto">
      <path d="M0 0 L10 5 L0 10 Z" fill="#38bdf8"/>
    </marker>
  </defs>
  <rect width="900" height="420" rx="24" fill="url(#bg)"/>
  <text x="450" y="44" fill="#94a3b8" font-size="13" font-weight="700" text-anchor="middle" letter-spacing="1.6">VECTOJS ARCHITECTURE</text>

  <g>
    <rect x="48" y="158" width="180" height="72" rx="16" fill="#111827" stroke="#334155"/>
    <text x="138" y="188" fill="#f8fafc" font-size="16" font-weight="900" text-anchor="middle">Application state</text>
    <text x="138" y="211" fill="#94a3b8" font-size="12" text-anchor="middle">plain JS data and intent</text>

    <rect x="334" y="118" width="232" height="152" rx="24" fill="#172554" stroke="#38bdf8" stroke-width="2.5"/>
    <text x="450" y="172" fill="#e0f2fe" font-size="23" font-weight="900" text-anchor="middle">Virtual Math Tree</text>
    <text x="450" y="202" fill="#bfdbfe" font-size="13" text-anchor="middle">entities · transforms · layout</text>
    <text x="450" y="226" fill="#bfdbfe" font-size="13" text-anchor="middle">events · animation · semantics</text>

    <rect x="664" y="74" width="184" height="56" rx="14" fill="#111827" stroke="#334155"/>
    <text x="756" y="107" fill="#f8fafc" font-size="15" font-weight="900" text-anchor="middle">Math layout + text</text>

    <rect x="664" y="148" width="184" height="56" rx="14" fill="#111827" stroke="#334155"/>
    <text x="756" y="181" fill="#f8fafc" font-size="15" font-weight="900" text-anchor="middle">Hit testing + events</text>

    <rect x="664" y="222" width="184" height="56" rx="14" fill="#111827" stroke="#334155"/>
    <text x="756" y="255" fill="#f8fafc" font-size="15" font-weight="900" text-anchor="middle">Canvas / WebGL / WebGPU</text>

    <rect x="664" y="296" width="184" height="56" rx="14" fill="#111827" stroke="#334155"/>
    <text x="756" y="329" fill="#f8fafc" font-size="15" font-weight="900" text-anchor="middle">Semantic DOM projection</text>
  </g>

  <g stroke="#38bdf8" stroke-width="2.4" fill="none" marker-end="url(#arrow)">
    <path d="M228 194 H324"/>
    <path d="M566 159 C606 132 624 108 654 102"/>
    <path d="M566 181 H654"/>
    <path d="M566 213 C604 226 628 242 654 250"/>
    <path d="M524 270 C570 314 612 324 654 324"/>
  </g>

  <g>
    <rect x="246" y="330" width="408" height="44" rx="22" fill="#082f49" stroke="#155e75"/>
    <text x="450" y="358" fill="#a5f3fc" font-size="13" font-weight="800" text-anchor="middle">pixels stay canvas-rendered; accessibility and automation stay semantic</text>
  </g>
</svg>
